HIERARCHY
ROOT reference
{
  OFFSET 0 0 0
  CHANNELS 6 Xposition Yposition Zposition Zrotation Xrotation Yrotation
  JOINT Hips
  {
    OFFSET 370.543 87.5 183.721
    CHANNELS 3 Zrotation Xrotation Yrotation
    JOINT RightUpLeg
    {
      OFFSET -9.29072 -1.53718 -0.00769521
      CHANNELS 3 Zrotation Xrotation Yrotation
      JOINT RightLeg
      {
        OFFSET 0.000649198 -41.8926 0.0287464
        CHANNELS 3 Zrotation Xrotation Yrotation
        JOINT RightFoot
        {
          OFFSET -0.131981 -42.8927 0.241786
          CHANNELS 3 Zrotation Xrotation Yrotation
          End Site
          {
            OFFSET 0 -7.69 17.5
          }
        }
      }
    }
    JOINT LeftUpLeg
    {
      OFFSET 9.29816 -1.6623 -0.0330144
      CHANNELS 3 Zrotation Xrotation Yrotation
      JOINT LeftLeg
      {
        OFFSET 0.0555409 -41.8801 -0.0492089
        CHANNELS 3 Zrotation Xrotation Yrotation
        JOINT LeftFoot
        {
          OFFSET 0.737583 -41.1094 -0.206555
          CHANNELS 3 Zrotation Xrotation Yrotation
          End Site
          {
            OFFSET 0 -7.69 17.5
          }
        }
      }
    }
    JOINT Spine
    {
      OFFSET 0.0742767 14.2946 0.0485675
      CHANNELS 3 Zrotation Xrotation Yrotation
      JOINT Spine1
      {
        OFFSET 0.0332084 9.70841 0.0159593
        CHANNELS 3 Zrotation Xrotation Yrotation
        JOINT Spine2
        {
          OFFSET 0.0388468 10.1231 0.00288192
          CHANNELS 3 Zrotation Xrotation Yrotation
          JOINT Spine3
          {
            OFFSET 0.0300771 9.71993 0.00776905
            CHANNELS 3 Zrotation Xrotation Yrotation
            JOINT Neck
            {
              OFFSET 0.058413 10.382 0.0516165
              CHANNELS 3 Zrotation Xrotation Yrotation
              JOINT Head
              {
                OFFSET 0.0298281 9.47849 0.0268718
                CHANNELS 3 Zrotation Xrotation Yrotation
                End Site
                {
                  OFFSET 0 15.95 0
                }
              }
            }
            JOINT RightShoulder
            {
              OFFSET -3.15612 6.91385 0.0353801
              CHANNELS 3 Zrotation Xrotation Yrotation
              JOINT RightArm
              {
                OFFSET -12.7781 -0.0057607 0.0332486
                CHANNELS 3 Zrotation Xrotation Yrotation
                JOINT RightForeArm
                {
                  OFFSET -26.4999 -0.0425897 0.0409183
                  CHANNELS 3 Zrotation Xrotation Yrotation
                  JOINT RightHand
                  {
                    OFFSET -25.993 -0.0294641 0.00108206
                    CHANNELS 3 Zrotation Xrotation Yrotation
                    JOINT RightHandThumb1
                    {
                      OFFSET -2.48905 0.190105 3.12053
                      CHANNELS 3 Zrotation Xrotation Yrotation
                      JOINT RightHandThumb2
                      {
                        OFFSET -3.68274 0 0
                        CHANNELS 3 Zrotation Xrotation Yrotation
                        JOINT RightHandThumb3
                        {
                          OFFSET -2.55832 0 0
                          CHANNELS 3 Zrotation Xrotation Yrotation
                          End Site
                          {
                            OFFSET -2.194 0 0
                          }
                        }
                      }
                    }
                    JOINT RightInHandIndex
                    {
                      OFFSET -3.22368 0.508421 1.97842
                      CHANNELS 3 Zrotation Xrotation Yrotation
                      JOINT RightHandIndex1
                      {
                        OFFSET -5.21684 -0.091368 0.999158
                        CHANNELS 3 Zrotation Xrotation Yrotation
                        JOINT RightHandIndex2
                        {
                          OFFSET -3.61937 0 0
                          CHANNELS 3 Zrotation Xrotation Yrotation
                          JOINT RightHandIndex3
                          {
                            OFFSET -2.0521 0 0
                            CHANNELS 3 Zrotation Xrotation Yrotation
                            End Site
                            {
                              OFFSET -1.805 0 0
                            }
                          }
                        }
                      }
                    }
                    JOINT RightInHandMiddle
                    {
                      OFFSET -3.38211 0.517263 0.756737
                      CHANNELS 3 Zrotation Xrotation Yrotation
                      JOINT RightHandMiddle1
                      {
                        OFFSET -5.17411 -0.084 0.313895
                        CHANNELS 3 Zrotation Xrotation Yrotation
                        JOINT RightHandMiddle2
                        {
                          OFFSET -3.94947 0 0
                          CHANNELS 3 Zrotation Xrotation Yrotation
                          JOINT RightHandMiddle3
                          {
                            OFFSET -2.47579 0 0
                            CHANNELS 3 Zrotation Xrotation Yrotation
                            End Site
                            {
                              OFFSET -1.975 0 0
                            }
                          }
                        }
                      }
                    }
                    JOINT RightInHandRing
                    {
                      OFFSET -3.36516 0.537895 -0.128947
                      CHANNELS 3 Zrotation Xrotation Yrotation
                      JOINT RightHandRing1
                      {
                        OFFSET -4.63474 -0.022105 -0.478947
                        CHANNELS 3 Zrotation Xrotation Yrotation
                        JOINT RightHandRing2
                        {
                          OFFSET -3.44238 0 0
                          CHANNELS 3 Zrotation Xrotation Yrotation
                          JOINT RightHandRing3
                          {
                            OFFSET -2.3881 0 0
                            CHANNELS 3 Zrotation Xrotation Yrotation
                            End Site
                            {
                              OFFSET -1.857 0 0
                            }
                          }
                        }
                      }
                    }
                    JOINT RightInHandPinky
                    {
                      OFFSET -3.16105 0.469368 -1.20179
                      CHANNELS 3 Zrotation Xrotation Yrotation
                      JOINT RightHandPinky1
                      {
                        OFFSET -4.14105 -0.022105 -1.09053
                        CHANNELS 3 Zrotation Xrotation Yrotation
                        JOINT RightHandPinky2
                        {
                          OFFSET -2.75653 0 0
                          CHANNELS 3 Zrotation Xrotation Yrotation
                          JOINT RightHandPinky3
                          {
                            OFFSET -1.74189 0 0
                            CHANNELS 3 Zrotation Xrotation Yrotation
                            End Site
                            {
                              OFFSET -1.645 0 0
                            }
                          }
                        }
                      }
                    }
                  }
                }
              }
            }
            JOINT LeftShoulder
            {
              OFFSET 3.24463 6.9123 -0.0189685
              CHANNELS 3 Zrotation Xrotation Yrotation
              JOINT LeftArm
              {
                OFFSET 12.8793 -0.0485389 -0.0634723
                CHANNELS 3 Zrotation Xrotation Yrotation
                JOINT LeftForeArm
                {
                  OFFSET 26.4894 0.00252616 -0.136149
                  CHANNELS 3 Zrotation Xrotation Yrotation
                  JOINT LeftHand
                  {
                    OFFSET 26.005 0.0292639 -0.0166184
                    CHANNELS 3 Zrotation Xrotation Yrotation
                    JOINT LeftHandThumb1
                    {
                      OFFSET 2.48905 0.190105 3.12053
                      CHANNELS 3 Zrotation Xrotation Yrotation
                      JOINT LeftHandThumb2
                      {
                        OFFSET 3.68274 0 0
                        CHANNELS 3 Zrotation Xrotation Yrotation
                        JOINT LeftHandThumb3
                        {
                          OFFSET 2.55832 0 0
                          CHANNELS 3 Zrotation Xrotation Yrotation
                          End Site
                          {
                            OFFSET 2.194 0 0
                          }
                        }
                      }
                    }
                    JOINT LeftInHandIndex
                    {
                      OFFSET 3.22368 0.508421 1.97842
                      CHANNELS 3 Zrotation Xrotation Yrotation
                      JOINT LeftHandIndex1
                      {
                        OFFSET 5.21684 -0.091368 0.999158
                        CHANNELS 3 Zrotation Xrotation Yrotation
                        JOINT LeftHandIndex2
                        {
                          OFFSET 3.61937 0 0
                          CHANNELS 3 Zrotation Xrotation Yrotation
                          JOINT LeftHandIndex3
                          {
                            OFFSET 2.0521 0 0
                            CHANNELS 3 Zrotation Xrotation Yrotation
                            End Site
                            {
                              OFFSET 1.805 0 0
                            }
                          }
                        }
                      }
                    }
                    JOINT LeftInHandMiddle
                    {
                      OFFSET 3.38211 0.517263 0.756737
                      CHANNELS 3 Zrotation Xrotation Yrotation
                      JOINT LeftHandMiddle1
                      {
                        OFFSET 5.17411 -0.084 0.313895
                        CHANNELS 3 Zrotation Xrotation Yrotation
                        JOINT LeftHandMiddle2
                        {
                          OFFSET 3.94947 0 0
                          CHANNELS 3 Zrotation Xrotation Yrotation
                          JOINT LeftHandMiddle3
                          {
                            OFFSET 2.47579 0 0
                            CHANNELS 3 Zrotation Xrotation Yrotation
                            End Site
                            {
                              OFFSET 1.975 0 0
                            }
                          }
                        }
                      }
                    }
                    JOINT LeftInHandRing
                    {
                      OFFSET 3.36516 0.537895 -0.128947
                      CHANNELS 3 Zrotation Xrotation Yrotation
                      JOINT LeftHandRing1
                      {
                        OFFSET 4.63474 -0.022105 -0.478947
                        CHANNELS 3 Zrotation Xrotation Yrotation
                        JOINT LeftHandRing2
                        {
                          OFFSET 3.44238 0 0
                          CHANNELS 3 Zrotation Xrotation Yrotation
                          JOINT LeftHandRing3
                          {
                            OFFSET 2.3881 0 0
                            CHANNELS 3 Zrotation Xrotation Yrotation
                            End Site
                            {
                              OFFSET 1.857 0 0
                            }
                          }
                        }
                      }
                    }
                    JOINT LeftInHandPinky
                    {
                      OFFSET 3.16105 0.469368 -1.20179
                      CHANNELS 3 Zrotation Xrotation Yrotation
                      JOINT LeftHandPinky1
                      {
                        OFFSET 4.14105 -0.022105 -1.09053
                        CHANNELS 3 Zrotation Xrotation Yrotation
                        JOINT LeftHandPinky2
                        {
                          OFFSET 2.75653 0 0
                          CHANNELS 3 Zrotation Xrotation Yrotation
                          JOINT LeftHandPinky3
                          {
                            OFFSET 1.74189 0 0
                            CHANNELS 3 Zrotation Xrotation Yrotation
                            End Site
                            {
                              OFFSET 1.645 0 0
                            }
                          }
                        }
                      }
                    }
                  }
                }
              }
            }
          }
        }
      }
    }
  }
}
MOTION
Frames:	5
Frame Time:	0.00833333
0 0 0 0 0 -0 21.2794 13.5691 -65.787 -16.0929 -54.7098 -23.1637 -3.33664 25.148 -13.5409 6.66495 7.64188 26.0501 19.0556 -48.841 6.34154 6.06332 31.4252 -7.31114 -16.4213 -9.68696 -18.3025 -4.26726 17.4323 12.5052 -0.706742 4.25692 3.07425 -1.224 6.70518 5.13147 -0.307315 -0.589276 -0.46058 -0.307654 -0.595117 -0.457038 -6.37818 -11.2365 -8.08092 -3.91421 -14.6601 27.4573 70.7139 -5.53176 60.9411 5.76383 -54.0656 -9.66409 18.1666 -21.6918 -20.306 28.184 10.7294 19.1592 -9.47855e-15 1.19271e-15 -10 2.03542e-15 2.38542e-15 -10 3.18055e-15 9.54166e-15 6.36111e-15 19.9818 0.871897 2.3964 24 -8.34896e-15 -3.18055e-14 20 -1.35174e-14 -9.54166e-15 3.18055e-15 9.54166e-15 6.36111e-15 20 -1.27222e-14 -3.18055e-15 24 -5.56597e-15 -1.59028e-14 20 -7.95139e-16 -2.22639e-14 3.18055e-15 9.54166e-15 6.36111e-15 19.9748 -1.02565 -2.81938 24 3.18055e-15 -2.22639e-14 20 0 -1.27222e-14 3.18055e-15 9.54166e-15 6.36111e-15 19.7815 -3.00948 -8.30515 24 -5.56597e-15 -6.36111e-15 20 1.03368e-14 -1.27222e-14 13.4862 -14.3366 -32.3563 -47.7512 13.5588 -67.7591 17.362 -64.0166 25.1759 -22.9762 -16.6548 12.7604 -28.184 10.7294 -19.1592 -1.13713e-14 9.54166e-15 10 -3.22962e-15 0 10 -3.18055e-15 -1.59028e-14 -6.36111e-15 -19.9818 0.871897 -2.3964 -24 -7.95139e-16 -3.18055e-15 -20 1.59028e-15 3.18055e-15 -3.18055e-15 -1.59028e-14 -6.36111e-15 -20 -9.54166e-15 1.27222e-14 -24 0 2.54444e-14 -20 3.97569e-15 1.27222e-14 -3.18055e-15 -1.59028e-14 -6.36111e-15 -19.9748 -1.02565 2.81938 -24 -2.38542e-15 -0 -20 -1.59028e-15 3.18055e-15 -3.18055e-15 -1.59028e-14 -6.36111e-15 -19.7815 -3.00948 8.30515 -24 -6.75868e-15 2.54444e-14 -20 3.18055e-15 -0 
0 0 0 0 0 -0 21.2602 13.5025 -65.8913 -15.9773 -54.6868 -23.0125 -3.36628 25.1281 -13.4839 6.67311 7.66214 26.0514 19.1059 -48.7486 6.42736 6.01198 31.4482 -7.24926 -16.398 -9.71145 -18.3039 -4.26099 17.4224 12.4918 -0.706742 4.25692 3.07425 -1.22278 6.69992 5.1251 -0.31275 -0.589276 -0.46058 -0.313104 -0.595117 -0.457038 -6.46716 -11.179 -8.02928 -3.93011 -14.4766 27.4199 70.9399 -5.90612 60.4397 7.15702 -54.0555 -8.21443 18.2172 -21.5984 -20.288 28.184 10.7294 19.1592 -3.36982e-15 -7.95139e-16 -10 -3.79044e-15 -3.18055e-15 -10 1.59028e-14 0 4.77083e-15 19.9818 0.871897 2.3964 24 -1.07344e-14 -1.27222e-14 20 -7.15625e-15 -1.59028e-14 1.59028e-14 0 4.77083e-15 20 -3.18055e-15 2.22639e-14 24 1.59028e-15 -3.18055e-15 20 -8.74653e-15 -1.59028e-14 1.59028e-14 0 4.77083e-15 19.9748 -1.02565 -2.81938 24 3.18055e-15 -3.18055e-15 20 -6.36111e-15 -9.54166e-15 1.59028e-14 0 4.77083e-15 19.7815 -3.00948 -8.30515 24 -1.03368e-14 -1.90833e-14 20 -7.95139e-16 -6.36111e-15 13.4839 -14.3227 -32.4161 -47.7036 13.6045 -67.7862 17.5182 -63.7447 25.3556 -22.9132 -16.6132 12.7576 -28.184 10.7294 -19.1592 -3.79044e-15 3.18055e-15 10 -9.68886e-15 0 10 3.18055e-15 -6.36111e-15 -6.36111e-15 -19.9818 0.871897 -2.3964 -24 -3.18055e-15 -0 -20 -7.95139e-16 1.59028e-14 3.18055e-15 -6.36111e-15 -6.36111e-15 -20 -3.18055e-15 2.54444e-14 -24 -4.77083e-15 3.18055e-15 -20 0 9.54166e-15 3.18055e-15 -6.36111e-15 -6.36111e-15 -19.9748 -1.02565 2.81938 -24 1.19271e-14 9.54166e-15 -20 -7.95139e-16 3.18055e-15 3.18055e-15 -6.36111e-15 -6.36111e-15 -19.7815 -3.00948 8.30515 -24 -8.74653e-15 1.90833e-14 -20 4.77083e-15 1.90833e-14 
0 0 0 0 0 -0 21.2414 13.4407 -65.9972 -15.8581 -54.6721 -22.8617 -3.39434 25.1207 -13.4243 6.67512 7.66457 26.0516 19.1568 -48.6687 6.53346 5.97885 31.4811 -7.21223 -16.3722 -9.73516 -18.307 -4.25226 17.4121 12.4708 -0.706343 4.25694 3.06887 -1.22125 6.69417 5.11645 -0.318513 -0.589276 -0.46058 -0.318893 -0.595117 -0.457038 -6.56346 -11.1398 -7.97143 -3.93809 -14.2949 27.3751 71.0234 -6.06041 60.222 8.12305 -54.226 -7.16875 18.2175 -21.5384 -20.2698 28.184 10.7294 19.1592 3.58013e-15 1.98785e-15 -10 1.68491e-14 3.97569e-15 -10 1.27222e-14 3.18055e-15 -0 19.9818 0.871897 2.3964 24 -7.95139e-16 -2.22639e-14 20 -1.35174e-14 -1.27222e-14 1.27222e-14 3.18055e-15 -0 20 7.95139e-15 1.59028e-14 24 -5.56597e-15 6.36111e-15 20 3.97569e-15 9.54166e-15 1.27222e-14 3.18055e-15 -0 19.9748 -1.02565 -2.81938 24 3.97569e-15 -1.90833e-14 20 9.54166e-15 3.18055e-15 1.27222e-14 3.18055e-15 -0 19.7815 -3.00948 -8.30515 24 0 -6.36111e-15 20 7.95139e-15 6.36111e-15 13.4907 -14.3049 -32.4698 -47.6772 13.6366 -67.8052 17.6226 -63.4958 25.4838 -22.874 -16.5771 12.7542 -28.184 10.7294 -19.1592 -9.19568e-15 6.36111e-15 10 -1.23577e-14 -3.18055e-15 10 6.36111e-15 -9.54166e-15 -0 -19.9818 0.871897 -2.3964 -24 -1.59028e-14 -0 -20 -3.18055e-15 6.36111e-15 6.36111e-15 -9.54166e-15 -0 -20 -3.18055e-15 2.54444e-14 -24 -5.56597e-15 2.22639e-14 -20 1.59028e-15 -0 6.36111e-15 -9.54166e-15 -0 -19.9748 -1.02565 2.81938 -24 -4.77083e-15 9.54166e-15 -20 -1.59028e-15 -0 6.36111e-15 -9.54166e-15 -0 -19.7815 -3.00948 8.30515 -24 -9.54166e-15 2.8625e-14 -20 4.77083e-15 -3.18055e-15 
0 0 0 0 0 -0 21.2332 13.3694 -66.1118 -15.7589 -54.6569 -22.7134 -3.42443 25.1087 -13.3623 6.69054 7.67813 26.0525 19.1361 -48.6267 6.54846 5.92654 31.65 -7.13317 -16.3015 -9.85959 -18.3032 -4.24165 17.4013 12.4441 -0.70584 4.25697 3.0621 -1.21941 6.68831 5.10517 -0.325085 -0.589277 -0.457248 -0.32549 -0.595117 -0.453672 -6.67591 -11.1133 -7.90991 -3.94387 -14.1123 27.3255 71.0308 -6.1118 60.1432 8.91002 -54.6573 -6.27095 18.1415 -21.3273 -20.3217 28.184 10.7294 19.1592 -5.1974e-15 7.15625e-15 -10 6.73965e-15 1.59028e-15 -10 1.27222e-14 3.18055e-15 -9.54166e-15 19.9818 0.871897 2.3964 24 -1.27222e-14 -2.22639e-14 20 -1.66979e-14 -0 1.27222e-14 3.18055e-15 -9.54166e-15 20 -4.77083e-15 -6.36111e-15 24 -2.38542e-15 -9.54166e-15 20 9.54166e-15 -3.18055e-15 1.27222e-14 3.18055e-15 -9.54166e-15 19.9748 -1.02565 -2.81938 24 9.54166e-15 -1.27222e-14 20 3.18055e-15 -3.18055e-15 1.27222e-14 3.18055e-15 -9.54166e-15 19.7815 -3.00948 -8.30515 24 1.27222e-14 -1.59028e-14 20 6.36111e-15 6.36111e-15 13.4921 -14.2912 -32.5344 -47.6671 13.6564 -67.817 17.7102 -63.2584 25.5828 -22.8393 -16.5101 12.7392 -28.184 10.7294 -19.1592 -4.35126e-15 6.36111e-15 10 -1.34793e-14 3.18055e-15 10 -3.53113e-31 -3.18055e-15 -6.36111e-15 -19.9818 0.871897 -2.3964 -24 -1.03368e-14 6.36111e-15 -20 7.95139e-16 1.27222e-14 -3.53113e-31 -3.18055e-15 -6.36111e-15 -20 -6.36111e-15 2.22639e-14 -24 -1.19271e-14 1.27222e-14 -20 7.95139e-16 -0 -3.53113e-31 -3.18055e-15 -6.36111e-15 -19.9748 -1.02565 2.81938 -24 4.77083e-15 9.54166e-15 -20 0 -0 -3.53113e-31 -3.18055e-15 -6.36111e-15 -19.7815 -3.00948 8.30515 -24 -1.98785e-15 9.54166e-15 -20 3.97569e-15 9.54166e-15 
0 0 0 0 0 -0 21.2259 13.2898 -66.2392 -15.653 -54.6407 -22.5457 -3.45045 25.0823 -13.3069 6.70135 7.69687 26.0608 19.1523 -48.5567 6.62213 5.88296 31.7368 -7.07032 -16.2565 -9.92415 -18.2992 -4.23009 17.3862 12.4172 -0.705064 4.25249 3.05488 -1.21736 6.68134 5.09297 -0.332129 -0.589277 -0.453292 -0.332555 -0.595118 -0.449677 -6.79726 -11.0929 -7.84408 -3.93451 -13.9323 27.2561 71.0363 -6.13427 60.0542 9.83666 -54.889 -5.22054 18.0352 -21.3197 -20.3342 28.184 10.7294 19.1592 1.40401e-14 6.36111e-15 -10 1.29185e-14 0 -10 9.54166e-15 0 -3.18055e-15 19.9818 0.871897 2.3964 24 2.98177e-15 1.59028e-14 20 -5.56597e-15 2.22639e-14 9.54166e-15 0 -3.18055e-15 20 -3.18055e-15 3.18055e-14 24 8.74653e-15 1.90833e-14 20 2.06736e-14 1.90833e-14 9.54166e-15 0 -3.18055e-15 19.9748 -1.02565 -2.81938 24 1.90833e-14 2.22639e-14 20 -7.15625e-15 1.27222e-14 9.54166e-15 0 -3.18055e-15 19.7815 -3.00948 -8.30515 24 7.95139e-15 1.59028e-14 20 9.54166e-15 1.59028e-14 13.5026 -14.2694 -32.5973 -47.688 13.676 -67.8304 17.7884 -62.9885 25.6585 -22.7548 -16.4463 12.7287 -28.184 10.7294 -19.1592 -3.79044e-15 3.18055e-15 10 1.40401e-14 -6.36111e-15 10 3.53113e-31 -6.36111e-15 3.18055e-15 -19.9818 0.871897 -2.3964 -24 -3.18055e-15 -0 -20 5.96354e-15 -0 3.53113e-31 -6.36111e-15 3.18055e-15 -20 0 6.36111e-15 -24 0 9.54166e-15 -20 2.38542e-15 -6.36111e-15 3.53113e-31 -6.36111e-15 3.18055e-15 -19.9748 -1.02565 2.81938 -24 -3.97569e-15 -9.54166e-15 -20 5.56597e-15 -1.27222e-14 3.53113e-31 -6.36111e-15 3.18055e-15 -19.7815 -3.00948 8.30515 -24 -2.78299e-15 -0 -20 7.15625e-15 -1.27222e-14 
